<svg width="23" height="22" viewBox="0 0 23 22" fill="none" xmlns="http://www.w3.org/2000/svg">
<path d="M8.87489 2.40384e-08C10.4293 -3.34337e-05 11.9512 0.445836 13.2598 1.28471C14.5685 2.12358 15.609 3.32024 16.258 4.73272C16.907 6.1452 17.1372 7.7142 16.9213 9.25357C16.7054 10.7929 16.0524 12.2381 15.0399 13.4175L22.0949 20.4725L21.2111 21.3562L14.1549 14.3C13.1597 15.151 11.9736 15.7489 10.6976 16.0428C9.42159 16.3366 8.09345 16.3177 6.82631 15.9877C5.55917 15.6576 4.39057 15.0262 3.42003 14.1472C2.4495 13.2682 1.70578 12.1677 1.25224 10.9393C0.798686 9.71093 0.648737 8.39114 0.81516 7.09234C0.981582 5.79354 1.45945 4.5542 2.20805 3.47988C2.95665 2.40556 3.95382 1.52808 5.11462 0.922174C6.27543 0.316272 7.56547 -0.00010069 8.87489 2.40384e-08ZM8.87489 1.25C7.05153 1.25 5.30285 1.97433 4.01354 3.26364C2.72422 4.55295 1.99989 6.30164 1.99989 8.125C1.99989 9.94836 2.72422 11.697 4.01354 12.9864C5.30285 14.2757 7.05153 15 8.87489 15C10.6983 15 12.4469 14.2757 13.7363 12.9864C15.0256 11.697 15.7499 9.94836 15.7499 8.125C15.7499 6.30164 15.0256 4.55295 13.7363 3.26364C12.4469 1.97433 10.6983 1.25 8.87489 1.25Z" fill="#58004C"/>
</svg>
